<svg width="216" height="225" viewBox="0 0 216 225" fill="none" xmlns="http://www.w3.org/2000/svg">
<g opacity="0.8" clip-path="url(#clip0_2234_9590)">
<path d="M34.0829 163.57C35.2502 164.467 35.4507 166.019 34.5507 167.19C33.6506 168.361 32.1002 168.566 30.9329 167.669C29.7656 166.772 29.5651 165.221 30.4652 164.05C31.3652 162.879 33.0129 162.748 34.0829 163.57Z" fill="#FFCF2D"/>
<path d="M47.5082 146.1C48.6755 146.997 48.876 148.548 47.9759 149.719C47.0759 150.89 45.5255 151.096 44.3582 150.199C43.1909 149.302 42.9904 147.751 43.8905 146.579C44.7155 145.506 46.4382 145.277 47.5082 146.1Z" fill="#FFCF2D"/>
<path d="M60.8583 128.728C62.0256 129.625 62.2261 131.176 61.326 132.347C60.426 133.518 58.8756 133.724 57.7083 132.827C56.541 131.93 56.3405 130.378 57.2406 129.207C58.1406 128.036 59.7883 127.905 60.8583 128.728Z" fill="#FFCF2D"/>
<path d="M74.2836 111.258C75.4509 112.155 75.6514 113.706 74.7513 114.877C73.8513 116.048 72.3008 116.254 71.1336 115.357C69.9663 114.46 69.7658 112.909 70.6659 111.738C71.5659 110.566 73.2136 110.436 74.2836 111.258Z" fill="#FFCF2D"/>
<path d="M87.7089 93.7881C88.8762 94.6852 89.0766 96.2363 88.1766 97.4075C87.2766 98.5786 85.7261 98.7842 84.5589 97.8872C83.3916 96.9902 83.1911 95.439 84.0911 94.2679C84.9162 93.1943 86.6389 92.9658 87.7089 93.7881Z" fill="#FFCF2D"/>
<path d="M101.134 76.3184C102.301 77.2154 102.502 78.7666 101.602 79.9377C100.702 81.1089 99.1514 81.3145 97.9841 80.4175C96.8169 79.5204 96.6164 77.9693 97.5164 76.7981C98.4165 75.627 100.064 75.4961 101.134 76.3184Z" fill="#FFCF2D"/>
<path d="M114.484 58.9463C115.652 59.8434 115.852 61.3945 114.952 62.5657C114.052 63.7368 112.502 63.9424 111.334 63.0454C110.167 62.1484 109.967 60.5972 110.867 59.426C111.767 58.2549 113.414 58.124 114.484 58.9463Z" fill="#FFCF2D"/>
<path d="M127.91 41.4766C129.077 42.3736 129.277 43.9248 128.377 45.096C127.477 46.2671 125.927 46.4727 124.76 45.5757C123.592 44.6786 123.392 43.1275 124.292 41.9563C125.192 40.7852 126.84 40.6543 127.91 41.4766Z" fill="#FFCF2D"/>
<path d="M141.335 24.0069C142.502 24.9039 142.703 26.4551 141.803 27.6262C140.903 28.7974 139.352 29.003 138.185 28.1059C137.018 27.2089 136.817 25.6578 137.717 24.4866C138.542 23.413 140.265 23.1846 141.335 24.0069Z" fill="#FFCF2D"/>
<path d="M48.5766 174.708C49.7439 175.605 49.9443 177.156 49.0443 178.327C48.1443 179.499 46.5938 179.704 45.4265 178.807C44.2593 177.91 44.0588 176.359 44.9588 175.188C45.8588 174.017 47.4093 173.811 48.5766 174.708Z" fill="#FFCF2D"/>
<path d="M62.0019 157.238C63.1692 158.135 63.3696 159.687 62.4696 160.858C61.5696 162.029 60.0191 162.234 58.8518 161.337C57.6845 160.44 57.4841 158.889 58.3841 157.718C59.2091 156.644 60.8346 156.341 62.0019 157.238Z" fill="#FFCF2D"/>
<path d="M75.352 139.866C76.5193 140.763 76.7197 142.314 75.8197 143.486C74.9197 144.657 73.3692 144.862 72.2019 143.965C71.0346 143.068 70.8342 141.517 71.7342 140.346C72.6342 139.175 74.1847 138.969 75.352 139.866Z" fill="#FFCF2D"/>
<path d="M88.7773 122.397C89.9446 123.294 90.145 124.845 89.245 126.016C88.345 127.187 86.7945 127.393 85.6272 126.496C84.4599 125.599 84.2595 124.047 85.1595 122.876C86.0595 121.705 87.61 121.499 88.7773 122.397Z" fill="#FFCF2D"/>
<path d="M102.203 104.926C103.37 105.823 103.57 107.374 102.67 108.545C101.77 109.716 100.22 109.922 99.0525 109.025C97.8852 108.128 97.6848 106.577 98.5848 105.406C99.4098 104.332 101.035 104.029 102.203 104.926Z" fill="#FFCF2D"/>
<path d="M115.628 87.4561C116.795 88.3531 116.996 89.9043 116.096 91.0754C115.196 92.2466 113.645 92.4522 112.478 91.5552C111.311 90.6581 111.11 89.107 112.01 87.9358C112.91 86.7647 114.461 86.5591 115.628 87.4561Z" fill="#FFCF2D"/>
<path d="M128.978 70.084C130.145 70.9811 130.346 72.5322 129.446 73.7034C128.546 74.8745 126.995 75.0801 125.828 74.1831C124.661 73.2861 124.46 71.7349 125.36 70.5637C126.26 69.3926 127.811 69.187 128.978 70.084Z" fill="#FFCF2D"/>
<path d="M142.403 52.6143C143.571 53.5113 143.771 55.0625 142.871 56.2337C141.971 57.4048 140.42 57.6104 139.253 56.7134C138.086 55.8163 137.885 54.2652 138.785 53.094C139.685 51.9229 141.236 51.7173 142.403 52.6143Z" fill="#FFCF2D"/>
<path d="M155.829 35.1446C156.996 36.0416 157.196 37.5928 156.296 38.7639C155.396 39.9351 153.846 40.1407 152.678 39.2436C151.511 38.3466 151.311 36.7955 152.211 35.6243C153.036 34.5507 154.661 34.2475 155.829 35.1446Z" fill="#FFCF2D"/>
<path d="M5.1928 141.368C6.36008 142.265 6.56053 143.816 5.66052 144.988C4.7605 146.159 3.21003 146.364 2.04275 145.467C0.875462 144.57 0.675012 143.019 1.57503 141.848C2.47504 140.677 4.02552 140.471 5.1928 141.368Z" fill="#FFCF2D"/>
<path d="M18.6181 123.898C19.7854 124.796 19.9858 126.347 19.0858 127.518C18.1858 128.689 16.6353 128.895 15.468 127.998C14.3008 127.101 14.1003 125.549 15.0003 124.378C15.8253 123.305 17.4508 123.001 18.6181 123.898Z" fill="#FFCF2D"/>
<path d="M31.9682 106.526C33.1355 107.423 33.3359 108.975 32.4359 110.146C31.5359 111.317 29.9854 111.523 28.8181 110.625C27.6509 109.728 27.5254 108.08 28.3504 107.006C29.2504 105.835 30.8009 105.629 31.9682 106.526Z" fill="#FFCF2D"/>
<path d="M45.3935 89.0567C46.5608 89.9537 46.7612 91.5049 45.8612 92.676C44.9612 93.8472 43.4107 94.0528 42.2434 93.1558C41.0761 92.2587 40.9507 90.61 41.7757 89.5364C42.6007 88.4628 44.2262 88.1597 45.3935 89.0567Z" fill="#FFCF2D"/>
<path d="M58.8188 71.587C59.9861 72.484 60.1865 74.0351 59.2865 75.2063C58.3865 76.3775 56.836 76.5831 55.6687 75.686C54.5014 74.789 54.301 73.2378 55.201 72.0667C56.026 70.9931 57.6515 70.6899 58.8188 71.587Z" fill="#FFCF2D"/>
<path d="M72.2441 54.1163C73.4114 55.0133 73.6118 56.5644 72.7118 57.7356C71.8118 58.9068 70.2613 59.1124 69.094 58.2153C67.9267 57.3183 67.7263 55.7671 68.6263 54.596C69.5263 53.4248 71.0768 53.2192 72.2441 54.1163Z" fill="#FFCF2D"/>
<path d="M85.5942 36.7442C86.7614 37.6412 86.9619 39.1924 86.0619 40.3635C85.1619 41.5347 83.6114 41.7403 82.4441 40.8433C81.2768 39.9462 81.0764 38.3951 81.9764 37.2239C82.8764 36.0527 84.4269 35.8472 85.5942 36.7442Z" fill="#FFCF2D"/>
<path d="M99.0195 19.2745C100.187 20.1715 100.387 21.7226 99.4872 22.8938C98.5872 24.065 97.0367 24.2706 95.8694 23.3735C94.7021 22.4765 94.5017 20.9253 95.4017 19.7542C96.3017 18.583 97.8522 18.3774 99.0195 19.2745Z" fill="#FFCF2D"/>
<path d="M112.445 1.80475C113.612 2.70179 113.812 4.25292 112.912 5.42408C112.012 6.59524 110.462 6.80083 109.295 5.9038C108.127 5.00676 107.927 3.45561 108.827 2.28445C109.652 1.21089 111.277 0.907716 112.445 1.80475Z" fill="#FFCF2D"/>
<path d="M19.6865 152.507C20.8537 153.404 21.0542 154.955 20.1542 156.126C19.2542 157.297 17.6064 157.428 16.5364 156.606C15.3691 155.709 15.1687 154.158 16.0687 152.987C16.9687 151.815 18.5192 151.61 19.6865 152.507Z" fill="#FFCF2D"/>
<path d="M33.1117 135.036C34.279 135.933 34.4795 137.484 33.5795 138.656C32.6794 139.827 31.129 140.032 29.9617 139.135C28.7944 138.238 28.594 136.687 29.494 135.516C30.319 134.442 31.9445 134.139 33.1117 135.036Z" fill="#FFCF2D"/>
<path d="M46.4618 117.664C47.6291 118.561 47.8296 120.112 46.9296 121.283C46.0295 122.455 44.4791 122.66 43.3118 121.763C42.1445 120.866 41.9441 119.315 42.8441 118.144C43.7441 116.973 45.2946 116.767 46.4618 117.664Z" fill="#FFCF2D"/>
<path d="M59.8871 100.194C61.0544 101.091 61.2549 102.643 60.3549 103.814C59.4548 104.985 57.9044 105.19 56.7371 104.293C55.5698 103.396 55.3693 101.845 56.2694 100.674C57.1694 99.5029 58.7199 99.2973 59.8871 100.194Z" fill="#FFCF2D"/>
<path d="M73.3124 82.7247C74.4797 83.6217 74.6802 85.1728 73.7801 86.344C72.8801 87.5152 71.3297 87.7208 70.1624 86.8237C68.9951 85.9267 68.7946 84.3755 69.6947 83.2044C70.5197 82.1308 72.1451 81.8276 73.3124 82.7247Z" fill="#FFCF2D"/>
<path d="M86.7377 65.2549C87.905 66.152 88.1055 67.7031 87.2054 68.8743C86.3054 70.0454 84.7549 70.251 83.5877 69.354C82.4204 68.457 82.2199 66.9058 83.1199 65.7346C84.02 64.5635 85.5704 64.3579 86.7377 65.2549Z" fill="#FFCF2D"/>
<path d="M100.088 47.8829C101.255 48.7799 101.456 50.331 100.556 51.5022C99.6555 52.6734 98.105 52.879 96.9378 51.9819C95.7705 51.0849 95.57 49.5337 96.47 48.3626C97.3701 47.1914 98.9205 46.9858 100.088 47.8829Z" fill="#FFCF2D"/>
<path d="M113.513 30.4131C114.68 31.3102 114.881 32.8613 113.981 34.0325C113.081 35.2036 111.53 35.4092 110.363 34.5122C109.196 33.6152 108.995 32.064 109.895 30.8929C110.795 29.7217 112.346 29.5161 113.513 30.4131Z" fill="#FFCF2D"/>
<path d="M126.938 12.9434C128.106 13.8404 128.306 15.3916 127.406 16.5627C126.506 17.7339 124.956 17.9395 123.788 17.0425C122.621 16.1454 122.421 14.5943 123.321 13.4231C124.146 12.3496 125.771 12.0464 126.938 12.9434Z" fill="#FFCF2D"/>
<path d="M62.9736 185.772C64.1408 186.669 64.3413 188.22 63.4413 189.391C62.5413 190.562 60.9908 190.768 59.8235 189.871C58.6562 188.974 58.4558 187.422 59.3558 186.251C60.2558 185.08 61.9036 184.949 62.9736 185.772Z" fill="#FFCF2D"/>
<path d="M76.3989 168.302C77.5661 169.199 77.7666 170.75 76.8666 171.921C75.9665 173.092 74.4161 173.298 73.2488 172.401C72.0815 171.504 71.8811 169.953 72.7811 168.782C73.6061 167.708 75.3288 167.48 76.3989 168.302Z" fill="#FFCF2D"/>
<path d="M89.749 150.93C90.9162 151.827 91.1167 153.378 90.2167 154.549C89.3167 155.72 87.7662 155.926 86.5989 155.029C85.4316 154.132 85.2312 152.581 86.1312 151.409C87.0312 150.238 88.6789 150.107 89.749 150.93Z" fill="#FFCF2D"/>
<path d="M103.174 133.46C104.342 134.357 104.542 135.908 103.642 137.079C102.742 138.251 101.191 138.456 100.024 137.559C98.8569 136.662 98.6565 135.111 99.5565 133.94C100.456 132.769 102.104 132.638 103.174 133.46Z" fill="#FFCF2D"/>
<path d="M116.6 115.99C117.767 116.887 117.967 118.438 117.067 119.61C116.167 120.781 114.617 120.986 113.449 120.089C112.282 119.192 112.082 117.641 112.982 116.47C113.807 115.396 115.53 115.168 116.6 115.99Z" fill="#FFCF2D"/>
<path d="M130.025 98.5196C131.192 99.4166 131.393 100.968 130.493 102.139C129.593 103.31 128.042 103.516 126.875 102.619C125.707 101.722 125.507 100.17 126.407 98.9993C127.307 97.8281 128.955 97.6973 130.025 98.5196Z" fill="#FFCF2D"/>
<path d="M143.375 81.1475C144.542 82.0445 144.743 83.5957 143.843 84.7668C142.943 85.938 141.392 86.1436 140.225 85.2466C139.058 84.3495 138.857 82.7984 139.757 81.6272C140.657 80.4561 142.305 80.3252 143.375 81.1475Z" fill="#FFCF2D"/>
<path d="M156.8 63.6778C157.968 64.5748 158.168 66.126 157.268 67.2971C156.368 68.4683 154.817 68.6739 153.65 67.7768C152.483 66.8798 152.282 65.3287 153.182 64.1575C154.082 62.9863 155.73 62.8555 156.8 63.6778Z" fill="#FFCF2D"/>
<path d="M170.226 46.2081C171.393 47.1051 171.593 48.6562 170.693 49.8274C169.793 50.9985 168.243 51.2041 167.075 50.3071C165.908 49.4101 165.708 47.8589 166.608 46.6878C167.433 45.6142 169.155 45.3858 170.226 46.2081Z" fill="#FFCF2D"/>
<path d="M77.4672 196.909C78.6345 197.806 78.8349 199.357 77.9349 200.529C77.0349 201.7 75.4844 201.905 74.3172 201.008C73.1499 200.111 72.9494 198.56 73.8494 197.389C74.7495 196.218 76.2999 196.012 77.4672 196.909Z" fill="#FFCF2D"/>
<path d="M90.8925 179.439C92.0598 180.337 92.2602 181.888 91.3602 183.059C90.4602 184.23 88.9097 184.436 87.7424 183.539C86.5752 182.642 86.3747 181.09 87.2747 179.919C88.0998 178.846 89.7252 178.542 90.8925 179.439Z" fill="#FFCF2D"/>
<path d="M104.243 162.067C105.41 162.964 105.61 164.516 104.71 165.687C103.81 166.858 102.26 167.064 101.093 166.166C99.9253 165.269 99.7248 163.718 100.625 162.547C101.525 161.376 103.075 161.17 104.243 162.067Z" fill="#FFCF2D"/>
<path d="M118.136 148.217C119.005 147.085 118.796 145.465 117.668 144.598C116.54 143.731 114.92 143.945 114.05 145.077C113.18 146.209 113.39 147.83 114.518 148.697C115.646 149.564 117.266 149.349 118.136 148.217Z" fill="#FFCF2D"/>
<path d="M131.093 127.128C132.26 128.025 132.461 129.576 131.561 130.747C130.661 131.918 129.11 132.124 127.943 131.227C126.776 130.33 126.575 128.779 127.475 127.608C128.3 126.534 129.926 126.231 131.093 127.128Z" fill="#FFCF2D"/>
<path d="M144.518 109.658C145.686 110.555 145.886 112.106 144.986 113.278C144.086 114.449 142.536 114.654 141.368 113.757C140.201 112.86 140.001 111.309 140.901 110.138C141.801 108.967 143.351 108.761 144.518 109.658Z" fill="#FFCF2D"/>
<path d="M157.869 92.2862C159.036 93.1832 159.236 94.7343 158.336 95.9055C157.436 97.0767 155.886 97.2823 154.719 96.3852C153.551 95.4882 153.351 93.9371 154.251 92.7659C155.151 91.5947 156.701 91.3891 157.869 92.2862Z" fill="#FFCF2D"/>
<path d="M171.762 78.4358C172.631 77.3039 172.422 75.6834 171.294 74.8164C170.166 73.9495 168.546 74.1642 167.676 75.2962C166.806 76.4281 167.016 78.0485 168.144 78.9155C169.272 79.7825 170.892 79.5677 171.762 78.4358Z" fill="#FFCF2D"/>
<path d="M184.719 57.3467C185.886 58.2438 186.087 59.7949 185.187 60.9661C184.287 62.1372 182.736 62.3428 181.569 61.4458C180.402 60.5488 180.201 58.9976 181.101 57.8264C181.926 56.7529 183.552 56.4497 184.719 57.3467Z" fill="#FFCF2D"/>
<path d="M91.9609 208.048C93.1282 208.945 93.3286 210.496 92.4286 211.667C91.5286 212.838 89.9781 213.044 88.8108 212.147C87.6435 211.25 87.4431 209.699 88.3431 208.528C89.2431 207.356 90.7936 207.151 91.9609 208.048Z" fill="#FFCF2D"/>
<path d="M105.386 190.578C106.553 191.475 106.754 193.026 105.854 194.198C104.954 195.369 103.403 195.574 102.236 194.677C101.069 193.78 100.868 192.229 101.768 191.058C102.593 189.984 104.219 189.681 105.386 190.578Z" fill="#FFCF2D"/>
<path d="M118.736 173.206C119.904 174.103 120.104 175.654 119.204 176.825C118.304 177.997 116.753 178.202 115.586 177.305C114.419 176.408 114.218 174.857 115.118 173.686C116.018 172.515 117.569 172.309 118.736 173.206Z" fill="#FFCF2D"/>
<path d="M132.162 155.736C133.329 156.633 133.529 158.185 132.629 159.356C131.729 160.527 130.179 160.732 129.012 159.835C127.844 158.938 127.644 157.387 128.544 156.216C129.444 155.045 130.994 154.839 132.162 155.736Z" fill="#FFCF2D"/>
<path d="M145.587 138.267C146.754 139.164 146.955 140.715 146.055 141.886C145.155 143.057 143.604 143.263 142.437 142.366C141.27 141.469 141.069 139.918 141.969 138.746C142.794 137.673 144.42 137.37 145.587 138.267Z" fill="#FFCF2D"/>
<path d="M159.012 120.796C160.179 121.693 160.38 123.244 159.48 124.415C158.58 125.586 157.029 125.792 155.862 124.895C154.695 123.998 154.494 122.447 155.394 121.276C156.294 120.105 157.845 119.899 159.012 120.796Z" fill="#FFCF2D"/>
<path d="M172.362 103.424C173.53 104.321 173.73 105.872 172.83 107.043C171.93 108.214 170.379 108.42 169.212 107.523C168.045 106.626 167.844 105.075 168.744 103.904C169.644 102.732 171.195 102.527 172.362 103.424Z" fill="#FFCF2D"/>
<path d="M185.788 85.9541C186.955 86.8512 187.155 88.4023 186.255 89.5735C185.355 90.7447 183.805 90.9503 182.637 90.0532C181.47 89.1562 181.27 87.605 182.17 86.4339C183.07 85.2627 184.62 85.0571 185.788 85.9541Z" fill="#FFCF2D"/>
<path d="M199.213 68.4844C200.38 69.3815 200.581 70.9326 199.681 72.1038C198.781 73.2749 197.23 73.4805 196.063 72.5835C194.895 71.6865 194.695 70.1353 195.595 68.9641C196.42 67.8906 198.046 67.5874 199.213 68.4844Z" fill="#FFCF2D"/>
<path d="M106.357 219.111C107.525 220.008 107.725 221.56 106.825 222.731C105.925 223.902 104.375 224.107 103.207 223.21C102.04 222.313 101.84 220.762 102.74 219.591C103.64 218.42 105.287 218.289 106.357 219.111Z" fill="#FFCF2D"/>
<path d="M119.783 201.642C120.95 202.539 121.15 204.09 120.25 205.261C119.35 206.432 117.8 206.638 116.633 205.741C115.465 204.844 115.265 203.293 116.165 202.121C116.99 201.048 118.713 200.819 119.783 201.642Z" fill="#FFCF2D"/>
<path d="M133.133 184.27C134.3 185.167 134.5 186.718 133.6 187.889C132.7 189.06 131.15 189.266 129.983 188.369C128.815 187.472 128.615 185.92 129.515 184.749C130.415 183.578 132.063 183.447 133.133 184.27Z" fill="#FFCF2D"/>
<path d="M146.558 166.8C147.725 167.697 147.926 169.248 147.026 170.419C146.126 171.59 144.575 171.796 143.408 170.899C142.241 170.002 142.04 168.451 142.94 167.28C143.84 166.108 145.488 165.978 146.558 166.8Z" fill="#FFCF2D"/>
<path d="M159.983 149.329C161.151 150.226 161.351 151.777 160.451 152.948C159.551 154.12 158.001 154.325 156.833 153.428C155.666 152.531 155.466 150.98 156.366 149.809C157.191 148.735 158.913 148.507 159.983 149.329Z" fill="#FFCF2D"/>
<path d="M173.409 131.859C174.576 132.756 174.776 134.308 173.876 135.479C172.976 136.65 171.426 136.856 170.259 135.958C169.091 135.061 168.891 133.51 169.791 132.339C170.691 131.168 172.339 131.037 173.409 131.859Z" fill="#FFCF2D"/>
<path d="M186.759 114.487C187.926 115.384 188.126 116.936 187.226 118.107C186.326 119.278 184.776 119.483 183.609 118.586C182.441 117.689 182.241 116.138 183.141 114.967C184.041 113.796 185.689 113.665 186.759 114.487Z" fill="#FFCF2D"/>
<path d="M200.184 97.0176C201.351 97.9147 201.552 99.4658 200.652 100.637C199.752 101.808 198.201 102.014 197.034 101.117C195.867 100.22 195.666 98.6685 196.566 97.4973C197.466 96.3262 199.114 96.1953 200.184 97.0176Z" fill="#FFCF2D"/>
<path d="M213.609 79.5479C214.777 80.4449 214.977 81.9961 214.077 83.1672C213.177 84.3384 211.627 84.544 210.459 83.647C209.292 82.7499 209.092 81.1988 209.992 80.0276C210.817 78.954 212.539 78.7256 213.609 79.5479Z" fill="#FFCF2D"/>
</g>
<defs>
<clipPath id="clip0_2234_9590">
<rect width="181.184" height="132.739" fill="white" transform="translate(0 143.897) rotate(-52.4584)"/>
</clipPath>
</defs>
</svg>
